<svg width="2707" height="665" viewBox="0 0 2707 665" fill="none" xmlns="http://www.w3.org/2000/svg">
<path d="M541.944 561.014L215.063 97.4818L409.629 108.968L663.998 477.248L631.001 533.713L541.944 561.014Z" fill="black" stroke="white" stroke-width="9"/>
<rect x="761" y="534" width="616" height="120" fill="white" stroke="black" stroke-width="8"/>
<rect x="4" y="96" width="427" height="115" fill="white" stroke="black" stroke-width="8"/>
<rect x="761" y="92" width="427" height="115" fill="white" stroke="black" stroke-width="8"/>
<rect x="4" y="317" width="427" height="115" fill="white" stroke="black" stroke-width="8"/>
<rect x="4" y="96" width="137" height="559" fill="white" stroke="black" stroke-width="8"/>
<rect x="761" y="313" width="427" height="115" fill="white" stroke="black" stroke-width="8"/>
<rect x="761" y="95" width="137" height="559" fill="white" stroke="black" stroke-width="8"/>
<rect x="1270.6" y="173.08" width="138" height="604.845" transform="rotate(-37.2209 1270.6 173.08)" fill="white" stroke="black" stroke-width="8"/>
<path d="M483.795 476.865L708.499 93.6419L894.584 93.6419L628.406 541L525.928 541L483.795 476.865Z" fill="black" stroke="white" stroke-width="9"/>
<path d="M4 535H632.753L567.128 655H4V535Z" fill="white" stroke="black" stroke-width="8"/>
<rect x="1639" y="88" width="138" height="567" fill="white" stroke="black" stroke-width="8"/>
<rect x="1239" y="88" width="138" height="566" fill="white" stroke="black" stroke-width="8"/>
<rect x="1945.5" y="651.5" width="567" height="154" transform="rotate(-90 1945.5 651.5)" fill="black" stroke="white" stroke-width="9"/>
<rect x="1640.5" y="84.5" width="772" height="143" fill="black" stroke="white" stroke-width="9"/>
<path d="M2703 372.5C2703 531.867 2574.92 661 2417 661C2259.08 661 2131 531.867 2131 372.5C2131 213.133 2259.08 84 2417 84C2574.92 84 2703 213.133 2703 372.5Z" fill="white" stroke="black" stroke-width="8"/>
</svg>
