<svg width="52" height="64" viewBox="0 0 52 64" fill="none" xmlns="http://www.w3.org/2000/svg">
<path d="M26.0001 0C9.89122 0 0 3.56734 0 6.12494C0 8.68249 9.89122 12.2502 26.0001 12.2502C42.1089 12.2502 52 8.68249 52 6.12494C52 3.56734 42.1089 0 26.0001 0Z" fill="white"/>
<path d="M26.0001 21.2348C24.2408 21.2348 22.4793 21.189 20.7441 21.0995V33.8125C20.7441 45.8566 17.2344 53.351 15.1427 56.7467C15.0414 56.9109 14.8968 57.0356 14.7283 57.1036C12.4224 58.0347 11.6008 59.0329 11.6008 59.6565C11.6008 61.4276 17.2102 64 26.0001 64C34.7899 64 40.3993 61.4276 40.3993 59.6565C40.3993 59.0329 39.5776 58.0347 37.2718 57.1036C37.1033 57.0356 36.9586 56.9109 36.8574 56.7467C34.7657 53.351 31.2561 45.8566 31.2561 33.8125V21.0995C29.5208 21.189 27.7592 21.2348 26.0001 21.2348Z" fill="white"/>
<path d="M52 13.2033V9.10391C47.872 12.4309 36.8863 14.1563 26.0001 14.1563C15.1138 14.1563 4.12797 12.4309 0 9.10391V13.2033C0 15.7608 9.89122 19.3287 26.0001 19.3287C42.1089 19.3287 52 15.7608 52 13.2033Z" fill="white"/>
</svg>
