<svg xmlns="http://www.w3.org/2000/svg" xmlns:xlink="http://www.w3.org/1999/xlink" version="1.1" x="0px" y="0px" viewBox="0 0 90 112.5" style="enable-background:new 59 51 51 90;" xml:space="preserve"><path d="M45,11.4227905c-18.8125,0-30.3638306,3.7431641-30.3638306,6.4268188  c0,2.6835938,11.5513306,6.4271851,30.3638306,6.4271851s30.3637085-3.7435913,30.3637085-6.4271851  C75.3637085,15.1659546,63.8125,11.4227905,45,11.4227905z"/><path d="M45,33.7041016c-2.0545044,0-4.1116943-0.0480347-6.1381836-0.1419067v13.3395996  c0,12.6376953-4.0986938,20.5014648-6.5415039,24.0645142c-0.1182251,0.1722412-0.2871094,0.3031616-0.4838867,0.3744507  c-2.6929321,0.9769897-3.6524048,2.0244141-3.6524048,2.6787109c0,1.8583984,6.5507813,4.5576172,16.815979,4.5576172  c10.2650757,0,16.815918-2.6992188,16.815918-4.5576172c0-0.6542969-0.9595337-1.7017212-3.6524048-2.6787109  c-0.1967163-0.0712891-0.3657227-0.2022095-0.4838867-0.3744507c-2.4428101-3.5630493-6.5415039-11.4268188-6.5415039-24.0645142  V33.5621948C49.1115723,33.6560669,47.0543823,33.7041016,45,33.7041016z"/><path d="M75.3637085,25.2767944v-4.3013916C70.5429077,24.4663696,57.7133179,26.2767944,45,26.2767944  c-12.7133789,0-25.5430298-1.8104248-30.3638306-5.3013916v4.3013916c0,2.6835938,11.5513306,6.4273071,30.3638306,6.4273071  S75.3637085,27.9603882,75.3637085,25.2767944z"/></svg>